
<svg xmlns="http://www.w3.org/2000/svg" version="1.1" xmlns:xlink="http://www.w3.org/1999/xlink" preserveAspectRatio="none" x="0px" y="0px" width="550px" height="400px" viewBox="0 0 550 400">
<defs>
<g id="Layer0_0_FILL">
<path fill="#0066CC" stroke="none" d="
M 386.4 123.25
Q 380.7853515625 119.145703125 374.9 113.5 369.01796875 107.85390625 361.25 104.9 353.52890625 101.99765625 347.25 106.85 340.9728515625 111.7521484375 341.3 119.2 341.673828125 126.6974609375 347.5 133.25 343.613671875 136.0470703125 340.05 139.6 339.6607421875 139.9904296875 339.25 140.35 318.0634765625 135.7056640625 281.6 141.95 245.1314453125 148.191796875 223.1 187.9 201.128125 227.6169921875 221.1 269 184.65859375 274.6763671875 161.05 209.65 137.4876953125 144.6748046875 132.1 181.4 126.70234375 218.1248046875 144.05 246.2 161.402734375 274.3259765625 182.95 285.9 204.50078125 297.5166015625 231.6 293.15 228.5326171875 305.4908203125 239.8 305.9 251.121875 306.3025390625 282.6 304.5 314.0703125 302.7599609375 320.45 302.3 326.8345703125 301.880078125 331.8 303.25 336.754296875 304.6775390625 339.5 306 342.246484375 307.375 344.05 306.7 345.8626953125 306.03046875 347.55 304.45 348.9572265625 305.7 350.8 305.7 352.8 305.7 354.2 304.25 354.8328125 303.6390625 355.2 302.9 363.946875 302.887890625 363.95 299.25 363.95 294.6 351.7 291.3 339.858984375 288.0970703125 323.2 288 324.130859375 286.6796875 325 285.15 331.45 273.8 331.45 257.75 331.45 246.5439453125 328.3 237.6 339.3576171875 229.2849609375 355.45 234.5 374.961328125 240.8158203125 386.95 244.15
L 386.95 244.2
Q 393.90625 245.894140625 395.3 246.75 398.15 248.5 402.2 248.5 406.25 248.5 409.1 246.75 411.95 245 411.95 242.5 411.95 241.7900390625 411.7 241.15 412.49765625 240.8458984375 413.2 240.45 416 238.9 416 236.75 416 234.6 413.2 233.05 410.45 231.5 406.55 231.5 402.65 231.5 399.85 233.05 399.030078125 233.512109375 398.45 234 387.3787109375 238.1904296875 375.75 210.1 399.154296875 221.912109375 417.9 220.35 436.7056640625 218.78828125 438.2 206.1 439.68046875 193.4556640625 438.3 174.55 436.923046875 155.64921875 421.5 140.35 406.134765625 125.0580078125 386.4 123.25 Z"/>
</g>
</defs>

<g transform="matrix( 1, 0, 0, 1, 0,0) ">
<use xlink:href="#Layer0_0_FILL"/>
</g>
</svg>
