
<svg xmlns="http://www.w3.org/2000/svg" version="1.1" xmlns:xlink="http://www.w3.org/1999/xlink" preserveAspectRatio="none" x="0px" y="0px" width="550px" height="400px" viewBox="0 0 550 400">
<defs>
<g id="Layer0_0_FILL">
<path fill="#0066CC" stroke="none" d="
M 365.6 345.05
L 365.15 344.25
Q 409.8 337.65 446.25 320.7 456.1 315 455.1 304.15 454.8 300.75 453.45 297.25
L 428.4 241.55
Q 417.7 222.5 404.8 200.85 378.95 157.45 368.1 144.6 351.15 124.55 322.55 126.1 321.2 126.2 303.45 131.05 287.25 135.5 285.1 134.4 282.75 133.25 277.8 133.3
L 266.2 133.3
Q 261.25 133.25 258.9 134.4 256.75 135.5 240.6 131.05 222.8 126.2 221.45 126.1 192.9 124.55 175.95 144.6 165.05 157.45 139.2 200.85 126.3 222.5 115.6 241.55
L 90.6 297.25
Q 89.2 300.75 88.9 304.15 87.9 315 97.8 320.7 134.2 337.65 178.9 344.25
L 178.4 345.05
Q 177.85 346.05 177.65 347.2 176.85 350.85 179.4 354.7 181.2 357.35 185.3 360.65 191.6 365.75 200.8 369.8 228.05 381.8 272 381.45 315.95 381.8 343.2 369.8 352.4 365.75 358.7 360.65 362.85 357.35 364.6 354.7 367.15 350.85 366.4 347.2 366.2 346.05 365.6 345.05
M 338.45 160.2
Q 344 167.7 348.15 180.3 351 188.9 346.7 191.85 344.25 193.55 336.65 193.85 331.2 194.05 315.25 190.55 299.25 187.05 291.8 184.05 285.65 181.55 284.35 174.95 283.95 172.9 284.1 170.65
L 286.6 155.3
Q 290.9 151.25 298.1 148.9 308 145.7 319.25 147.65 330.65 149.65 338.45 160.2
M 344.8 208.15
Q 342.85 213.6 338.75 232.6 336.7 242.15 335 250.6 334.75 252.7 333.5 253.75 331.05 255.9 326.2 250.7 321.45 245.65 303 218.2 285.55 191.9 285.4 191.85
L 292.75 194.55
Q 301.4 197.4 308 198.5 314.85 199.65 328.25 200.85 339.6 201.85 341.6 201.85 341.95 201.85 343.1 201.6 344.25 201.45 344.85 201.75 346.7 202.65 344.8 208.15
M 331.25 272
Q 328.8 272 327.05 270.25 325.35 268.5 325.35 266.05 325.35 263.6 327.05 261.85 328.8 260.1 331.25 260.1 333.75 260.1 335.45 261.85 337.2 263.6 337.2 266.05 337.2 268.5 335.45 270.25 333.75 272 331.25 272
M 197.3 191.85
Q 193 188.9 195.85 180.3 200.05 167.7 205.55 160.2 213.4 149.65 224.75 147.65 236.05 145.7 245.9 148.9 253.1 151.25 257.4 155.3
L 259.9 170.65
Q 260.05 172.9 259.65 174.95 258.4 181.55 252.2 184.05 244.8 187.05 228.8 190.55 212.8 194.05 207.35 193.85 199.8 193.55 197.3 191.85
M 251.3 194.55
L 258.6 191.85
Q 258.45 191.9 241 218.2 222.55 245.65 217.85 250.7 213 255.9 210.5 253.75 209.25 252.7 209 250.6 207.35 242.15 205.3 232.6 201.15 213.6 199.25 208.15 197.3 202.65 199.15 201.75 199.8 201.45 200.95 201.6 202.1 201.85 202.45 201.85 204.4 201.85 215.75 200.85 229.2 199.65 236 198.5 242.6 197.4 251.3 194.55
M 268.1 191.15
Q 269.4 190.2 270.85 189.55
L 272 189.1 273.15 189.55
Q 274.6 190.2 275.9 191.15 280.1 194.2 281.6 199.2 283.1 204.2 283.6 208.7 283.85 210.95 283.75 212.2
L 272 214.75 260.25 212.2
Q 260.2 210.95 260.4 208.7 260.9 204.2 262.4 199.2 263.9 194.2 268.1 191.15
M 293.5 234
L 301.85 246.05 301.85 258.95 293.5 258.95 293.5 234
M 259.5 223.35
L 266.05 219.65 266.05 258.95 259.5 258.95 259.5 223.35
M 308.95 279.05
L 310.2 279.15
Q 311.6 279.35 312.55 279.9 315.35 281.65 311.7 286.25 305.8 293.6 276.35 327.1 274.65 327.45 272 327.45 269.4 327.45 267.65 327.1 238.25 293.6 232.35 286.25 228.65 281.65 231.5 279.9 232.4 279.35 233.8 279.15
L 235.05 279.05 308.95 279.05
M 250.55 234
L 250.55 258.95 242.15 258.95 242.15 246.05 250.55 234
M 284.5 223.35
L 284.5 258.95 277.95 258.95 277.95 219.65 284.5 223.35
M 208.55 270.25
Q 206.8 268.5 206.8 266.05 206.8 263.6 208.55 261.85 210.3 260.1 212.75 260.1 215.2 260.1 216.95 261.85 218.7 263.6 218.7 266.05 218.7 268.5 216.95 270.25 215.2 272 212.75 272 210.3 272 208.55 270.25
M 378.5 83.3
Q 371.45 61.8 363.55 50.1 356.15 39.2 342.25 32 334.2 27.9 320.15 23.6 312.5 21.25 302.2 20.45
L 293.4 20.1
Q 290 20.1 287.25 20.25 284.45 20.4 282.15 17.6 280.1 15.1 273.6 15.1 272.85 15.1 272 15.15 271.2 15.1 270.45 15.1 263.9 15.1 261.85 17.6 259.6 20.4 256.8 20.25 254 20.1 250.6 20.1
L 241.85 20.45
Q 231.55 21.25 223.85 23.6 209.85 27.9 201.75 32 187.85 39.2 180.5 50.1 172.55 61.8 165.55 83.3 159.1 102.95 158 115.65 156.5 133.45 155.95 137.5 154.6 148.5 152.1 154.5 148.35 163.6 117.3 237.75 127.4 217.6 139.3 195.25 163.15 150.55 172.2 139.5 181.7 127.9 198.2 122.75 210.1 119.1 220.65 119.7 225.4 119.95 242.75 124.9 258.25 129.3 259.45 128.5 260.95 127.55 266.65 127.85
L 277.4 127.85
Q 283.05 127.55 284.55 128.5 285.75 129.3 301.25 124.9 318.6 119.95 323.4 119.7 333.9 119.1 345.8 122.75 362.3 127.9 371.85 139.5 380.85 150.55 404.7 195.25 416.6 217.6 426.7 237.75 395.65 163.6 391.9 154.5 389.45 148.5 388.05 137.5 387.55 133.45 386 115.65 384.9 102.95 378.5 83.3 Z"/>
</g>
</defs>

<g transform="matrix( 1, 0, 0, 1, 0,0) ">
<use xlink:href="#Layer0_0_FILL"/>
</g>
</svg>
