
<svg xmlns="http://www.w3.org/2000/svg" version="1.1" xmlns:xlink="http://www.w3.org/1999/xlink" preserveAspectRatio="none" x="0px" y="0px" width="550px" height="400px" viewBox="0 0 550 400">
<defs>
<g id="Layer0_0_FILL">
<path fill="#0066CC" stroke="none" d="
M 368.2 106.35
Q 368.15 106.4 368.15 106.5 363.1 114.4 363.1 114.45 362.9 114.8 362.75 115.15 352.9 133.75 339.3 137.65 263.7 137.65 215.95 169 123.9 233.85 135.85 294.6 129.45 269.65 121.35 265.8 113.2 261.95 113.4 272.4 103.3 265.05 94.7 263.9 86.05 262.75 80.75 269.35 75.4 275.95 75.7 281.95 75.95 287.95 81.5 290.25 70.5 290.35 64.35 296 58.2 301.7 58.85 312.9 59.5 324.05 67.2 331.75 74.9 339.45 85.75 339.45 92.3 339.45 97.7 336.65 98.75 337.9 99.9 339.05 109.35 348.5 122.7 348.5 133.45 348.5 157.15 332.9 142.6 344.9 144.6 355.35 146.55 365.75 190.6 368.1 234.6 370.45 240.65 369.6
L 400.45 369.6
Q 432.45 367.2 427.45 360.95 409.45 330.7 391.45 343.5 372.75 332.9 376 300.45 402.95 271.4 402.95 233 402.95 210 403.8 214.9 405 192.85 442.25 188.5 479.55 184.15 488 165.4 496.45 146.6 484.85 127.4 473.25 108.15 461.25 101.2 449.3 94.3 443.3 94.3 428.65 53.85 379.95 48.5 311.75 45.8 236.95 30 250 48.5 274.85 63.5
L 222.45 56
Q 251.3 92.65 299.45 106.5 341.3 118.65 368.2 106.35
M 347.3 323.85
L 358.4 348.35
Q 317.2 348.15 289.55 343.4 321.45 339.7 347.3 323.85 Z"/>
</g>
</defs>

<g transform="matrix( 1, 0, 0, 1, 0,0) ">
<use xlink:href="#Layer0_0_FILL"/>
</g>
</svg>
